<svg version="1.1" id="Layer_1" xmlns="http://www.w3.org/2000/svg" xmlns:xlink="http://www.w3.org/1999/xlink" x="0px" y="0px"
	 width="100%" viewBox="0 0 765 326" enable-background="new 0 0 765 326" xml:space="preserve">
<path fill="#000000" opacity="1.000000" stroke="none" 
	d="
M478.000000,327.000000 
	C318.703064,327.000000 159.906097,327.000000 1.054574,327.000000 
	C1.054574,218.394638 1.054574,109.789223 1.054574,1.000000 
	C128.409470,1.000000 255.819016,1.000000 383.228577,1.000000 
	C510.699371,1.000000 638.170166,1.000000 765.820435,1.000000 
	C765.820435,109.666435 765.820435,218.333191 765.820435,327.000000 
	C670.122559,327.000000 574.311279,327.000000 478.000000,327.000000 
M258.010040,168.201920 
	C257.330841,167.722687 256.651642,167.243454 255.701675,166.161850 
	C237.151093,151.150436 218.600494,136.139023 199.529236,120.706276 
	C206.873947,115.682426 213.933228,110.853806 221.544662,106.238159 
	C230.102356,100.964096 238.660065,95.690033 247.862778,90.072289 
	C251.765930,87.488487 255.692383,84.939087 259.567871,82.314415 
	C271.219971,74.422951 284.287445,68.274773 292.420990,56.029446 
	C293.460052,54.465103 294.819183,51.669617 294.168884,50.722881 
	C292.747559,48.653698 290.327362,46.708534 287.941132,46.031948 
	C285.812988,45.428543 283.188873,46.878159 280.771667,46.937809 
	C270.610992,47.188534 263.433563,53.537758 255.041946,58.944527 
	C252.327286,60.696617 249.544891,62.352962 246.909897,64.217644 
	C236.425064,71.637428 225.788681,78.863129 215.579453,86.647301 
	C202.306931,96.767113 189.323181,107.270462 176.342880,117.766685 
	C169.789505,123.065910 163.517441,128.712997 156.051483,135.117905 
	C156.051483,128.497559 156.051483,123.251595 156.321884,117.348686 
	C156.385941,116.884369 156.449997,116.420044 156.630280,115.049431 
	C156.630142,111.449554 156.630005,107.849686 156.933777,103.518959 
	C157.050018,91.764343 157.233032,80.009697 157.227768,68.255135 
	C157.226669,65.820709 156.526031,63.386593 156.479919,60.330177 
	C156.099045,58.611008 156.247238,56.444489 155.240845,55.254215 
	C151.841339,51.233566 148.148514,47.431656 144.258163,43.885868 
	C143.652237,43.333603 140.505386,44.141548 140.112091,45.024025 
	C138.119781,49.494495 135.457825,54.134693 135.211273,58.829906 
	C134.369308,74.864197 134.441208,90.946472 134.024216,107.936646 
	C134.071365,114.287521 134.118500,120.638405 134.005722,127.915283 
	C134.281586,134.294632 134.557449,140.673996 134.588959,147.913925 
	C134.777206,153.605927 134.965469,159.297943 135.134216,165.880249 
	C135.934937,177.906555 136.463287,189.959839 137.651337,201.947754 
	C138.244873,207.936737 137.354187,214.656891 143.559219,219.517181 
	C144.214401,218.979263 144.869583,218.441345 145.880005,217.941330 
	C145.880005,217.941330 146.084106,217.648132 146.688797,217.434464 
	C147.443970,215.623749 148.199158,213.813049 149.154510,211.375961 
	C149.152603,210.939148 149.150696,210.502350 149.820297,209.820969 
	C150.839859,206.530701 152.296432,203.304825 152.792526,199.937439 
	C154.011642,191.662445 154.788620,183.322311 155.947433,174.089920 
	C155.943573,168.597015 155.553467,163.066040 156.089630,157.626358 
	C156.382324,154.656601 157.651337,151.349121 159.540771,149.075439 
	C162.176132,145.904160 165.686630,143.400314 169.038467,140.900208 
	C172.788574,138.103073 176.785965,135.638306 180.664185,133.011856 
	C183.698090,130.957184 186.714355,128.876511 189.879730,126.710732 
	C191.705017,130.450027 193.055389,134.197418 195.195435,137.420441 
	C202.209930,147.984543 210.772385,157.160126 220.820358,164.957535 
	C224.294235,167.653336 227.462723,170.742676 231.364426,173.938416 
	C234.243393,176.300674 237.122360,178.662949 240.250031,181.568283 
	C240.737762,181.907974 241.225510,182.247650 241.909119,183.084106 
	C242.647858,183.513748 243.386612,183.943390 244.133652,185.084595 
	C244.276962,185.273636 244.420258,185.462662 245.052231,185.877899 
	C251.050140,190.878433 257.048065,195.878967 263.314667,201.418701 
	C263.878448,201.607040 264.442200,201.795380 265.307709,202.600525 
	C268.907898,204.895889 272.508087,207.191254 276.118683,209.952637 
	C276.118683,209.952637 276.459808,210.270248 276.965698,210.653030 
	C282.035919,213.088745 286.935211,216.404037 293.830231,213.960571 
	C298.142181,213.409225 303.370361,214.584641 304.914246,207.878738 
	C298.918213,202.491638 293.031921,196.951065 286.870758,191.735184 
	C280.059021,185.968536 272.995514,180.499283 265.768402,174.310852 
	C264.112000,173.052841 262.455627,171.794830 260.732910,170.245209 
	C260.732910,170.245209 260.439545,170.187042 260.107513,169.709991 
	C259.424591,169.437943 258.741669,169.165878 258.038849,168.969162 
	C258.038849,168.969162 258.110260,168.937973 258.010040,168.201920 
M576.040588,186.039017 
	C576.040588,186.039017 576.070435,186.115799 576.716003,186.016357 
	C577.142273,185.945236 577.568604,185.874130 578.666687,186.113953 
	C579.058838,187.192673 579.453918,188.270325 579.842651,189.350281 
	C582.641907,197.127884 593.223877,203.350861 599.717468,198.811707 
	C602.384094,196.947647 604.343933,194.072433 607.640442,190.582428 
	C607.640442,198.020340 607.949158,203.891006 607.574036,209.717667 
	C606.863953,220.749756 605.802551,231.760315 604.801819,242.772064 
	C604.393799,247.261597 607.385864,250.027557 611.593384,248.798218 
	C620.787048,246.112015 627.399231,238.857544 627.474365,228.050690 
	C627.587708,211.747131 627.669983,195.440475 628.073914,179.142776 
	C628.374146,167.029663 628.712036,154.885300 629.869568,142.835205 
	C630.905457,132.050888 630.137268,130.620422 619.201904,131.045303 
	C617.443176,131.113647 615.711670,131.882660 613.224731,132.545456 
	C612.381714,134.473419 610.962891,136.350525 610.787415,138.337463 
	C609.490723,153.016815 606.879761,167.377090 600.721924,181.650848 
	C599.384460,184.564331 598.019043,183.559860 597.116028,181.481125 
	C596.615967,180.329987 596.665771,178.856110 596.752563,177.546631 
	C597.804443,161.681793 598.682129,145.799316 600.156799,129.972809 
	C600.536377,125.898361 599.202271,124.131561 595.902344,122.835899 
	C588.620789,119.976952 581.168274,123.481155 578.286987,131.297180 
	C578.504822,132.536942 578.722656,133.776703 578.729065,135.615311 
	C578.555725,136.415588 578.382385,137.215851 578.051941,138.879120 
	C578.058716,140.925995 578.065430,142.972885 577.728088,145.428864 
	C577.814453,146.287521 577.900818,147.146179 577.833740,148.861954 
	C577.831604,150.889435 577.829407,152.916931 577.219971,155.368103 
	C573.192932,167.029999 568.584045,178.389374 561.124207,188.266418 
	C560.533447,188.161728 559.942627,188.057037 559.351807,187.952332 
	C559.101013,184.293808 558.850159,180.635284 558.776733,176.278183 
	C558.701050,173.765411 558.625366,171.252655 558.798950,167.888550 
	C558.726990,164.339066 558.655090,160.789566 558.761047,156.554031 
	C558.709106,155.378006 558.657166,154.201965 558.833435,152.192780 
	C559.481812,142.959427 560.130127,133.726074 560.808350,124.067505 
	C564.949707,124.067505 568.577332,124.691124 571.828613,123.853622 
	C574.088196,123.271584 576.942322,120.996964 577.534851,118.911453 
	C578.358276,116.013542 575.467407,114.475769 572.619751,114.030174 
	C569.411255,113.528114 566.190186,113.107010 564.392273,112.851883 
	C563.410583,108.041153 563.552917,103.336845 561.491211,99.990585 
	C558.863953,95.726440 553.257629,96.418625 549.255310,97.685448 
	C546.645447,98.511543 544.758301,102.147339 542.969543,104.808250 
	C542.133545,106.051804 542.174438,107.956657 542.033508,109.580498 
	C541.752014,112.824165 540.881958,114.963181 536.819519,114.334198 
	C534.810730,114.023170 532.478455,114.483521 530.566345,115.264763 
	C528.907532,115.942490 526.589600,117.476929 526.479309,118.793343 
	C526.364502,120.162292 528.257690,122.429733 529.785156,123.057220 
	C533.177124,124.450615 536.889404,125.064278 541.328064,126.218704 
	C540.937683,132.035126 540.769470,138.438126 540.007996,144.769760 
	C539.275146,150.863327 537.928589,156.883102 536.228882,163.317490 
	C532.349060,173.227203 528.469238,183.136917 524.025085,193.297775 
	C522.601196,192.883041 521.177307,192.468292 519.880005,191.197968 
	C519.286560,189.116623 518.693054,187.035278 518.059448,184.208374 
	C517.994568,183.467499 517.929688,182.726608 517.927795,181.443604 
	C517.633728,181.245499 517.339661,181.047409 517.054871,180.449280 
	C517.054871,180.449280 517.138489,180.057968 517.773621,179.749741 
	C517.790100,176.169037 517.806580,172.588348 517.985107,168.199219 
	C517.992310,165.692856 517.825439,163.171448 518.040710,160.683090 
	C518.590759,154.324417 519.483704,147.992294 519.919128,141.627640 
	C520.449585,133.873260 520.388916,126.072998 521.078308,118.336632 
	C521.658020,111.830635 523.265564,105.414810 523.816589,98.908127 
	C524.238281,93.928017 524.677307,88.591461 523.327332,83.929222 
	C522.187561,79.992714 517.342834,79.543800 513.401550,80.061623 
	C509.688324,80.549484 505.483246,81.283066 505.037781,86.007179 
	C503.814667,98.977669 502.943054,111.981293 501.275024,125.442497 
	C501.235596,127.623947 501.196198,129.805389 500.980957,132.613983 
	C500.753876,133.416061 500.526825,134.218155 500.123291,135.935104 
	C500.138702,140.618729 500.154114,145.302338 500.003510,150.793259 
	C497.737427,162.262711 493.964600,173.176575 488.038818,183.300079 
	C486.154114,186.519852 484.603882,185.127045 483.004211,182.314163 
	C482.922394,181.881210 482.840607,181.448242 482.785858,180.326584 
	C482.562592,179.234161 482.339325,178.141739 482.729767,176.610886 
	C482.530609,174.718948 482.331451,172.827011 482.102966,170.248276 
	C482.311401,169.160309 482.519806,168.072327 482.905975,166.208969 
	C482.981567,165.153625 483.057159,164.098297 483.826355,162.569992 
	C484.520966,157.714386 485.106506,152.840027 485.937073,148.007782 
	C487.042419,141.576675 485.125427,136.901520 478.767883,136.257889 
	C471.369690,135.508926 465.455109,132.695755 458.986267,129.420013 
	C449.413452,124.572456 438.282166,130.220825 432.064148,140.447220 
	C426.316071,149.900711 424.265015,160.114960 423.904236,170.962952 
	C423.546417,181.720093 425.064270,192.020859 430.902954,201.204315 
	C438.512604,213.173340 452.889465,214.160049 461.617493,202.843689 
	C463.930450,199.844788 465.574829,196.330231 467.531555,193.046036 
	C468.262909,193.421555 469.151093,193.641235 469.702271,194.195847 
	C478.771881,203.321686 486.608795,202.771469 494.318604,192.485168 
	C495.971527,190.279831 497.834259,188.231766 499.975037,185.661362 
	C501.066101,190.649689 501.659912,195.212860 503.081512,199.501617 
	C506.683838,210.369034 514.390625,216.512527 525.151794,208.510895 
	C530.177490,204.773972 533.062866,198.189209 537.032959,192.982590 
	C538.170410,191.490799 539.708069,190.304123 541.065796,189.760025 
	C542.062012,192.631210 542.802551,195.625702 544.114075,198.344803 
	C546.102417,202.466980 552.657776,206.039978 555.779175,205.410828 
	C564.733398,203.605942 569.993530,197.608459 574.010559,189.613434 
	C574.206604,189.334442 574.402649,189.055450 575.097168,188.347672 
	C575.437195,187.588135 575.777222,186.828598 576.040588,186.039017 
M301.824615,280.233215 
	C301.788116,279.497589 301.751617,278.761963 301.928589,277.280579 
	C301.857483,276.515228 301.786377,275.749908 301.817047,274.084503 
	C301.762970,271.067627 301.708862,268.050751 301.845612,264.536072 
	C301.510712,264.252747 301.175781,263.969452 300.105865,263.438568 
	C299.017761,265.752594 297.929626,268.066620 296.680695,270.722717 
	C295.302338,270.722717 293.244598,270.722717 291.056061,270.722717 
	C290.894836,268.297699 290.745697,266.055115 290.569031,263.398071 
	C288.896912,263.528015 287.554504,263.632355 286.324890,263.727905 
	C286.324890,270.140198 286.324890,276.027649 286.324890,282.284698 
	C288.013397,282.133148 289.389008,282.009644 290.698669,281.892090 
	C290.871887,279.177094 291.016632,276.908203 291.158661,274.681793 
	C295.329254,273.870758 298.558075,273.682861 298.026123,279.297760 
	C297.950928,280.091431 299.948090,281.081451 301.528198,281.936890 
	C301.591461,281.612427 301.654724,281.287964 301.824615,280.233215 
M365.731964,137.672150 
	C363.386017,149.541901 363.945435,161.363068 366.309326,173.157440 
	C367.552429,179.359802 369.448029,185.271942 373.978455,190.813080 
	C377.377106,195.717300 381.972443,198.322922 388.014801,197.735168 
	C396.286499,196.930496 402.040680,191.916504 405.476440,185.008835 
	C412.618927,170.648727 416.076965,155.224106 416.937164,139.170746 
	C417.168365,134.856750 414.818939,133.116913 411.572937,133.201370 
	C408.414398,133.283539 405.753906,134.525894 405.016907,139.016357 
	C402.939026,151.676727 400.134521,164.226791 397.248810,176.735550 
	C396.833801,178.534653 394.391418,179.866043 392.887268,181.413879 
	C391.606689,179.825027 389.635651,178.414230 389.171570,176.614792 
	C387.614685,170.578247 385.984161,164.447174 385.537903,158.268768 
	C385.067322,151.754044 386.045074,145.145203 386.137787,138.573914 
	C386.172638,136.105087 386.405792,132.573044 384.980896,131.345688 
	C380.356293,127.362206 368.541901,131.248093 365.731964,137.672150 
M359.165771,163.788727 
	C360.159546,153.588486 358.013641,144.227737 351.398956,136.216980 
	C343.484985,126.632729 325.435913,124.227036 316.376984,135.007492 
	C311.565033,140.733856 308.102325,146.986862 306.731323,154.441788 
	C304.759277,165.165039 304.594116,175.273911 311.744415,184.667206 
	C320.428101,196.074844 334.532806,196.067795 344.680542,189.380768 
	C353.251038,183.733047 357.921539,175.020432 359.165771,163.788727 
M333.563690,279.046417 
	C334.983063,280.117584 336.402405,281.188751 337.821747,282.259918 
	C338.440247,280.781281 339.484406,279.333008 339.592407,277.818024 
	C339.851746,274.180267 339.609192,270.509888 339.686462,266.855133 
	C339.765045,263.137482 337.942444,262.836243 334.999512,263.884979 
	C334.841339,266.789581 334.695282,269.471954 334.526703,272.567627 
	C329.441132,270.504028 329.506165,263.054230 323.041321,263.469360 
	C322.946014,265.029572 322.825378,266.167664 322.816040,267.306671 
	C322.782043,271.462067 322.585327,275.633698 322.914032,279.762268 
	C322.996826,280.802521 324.805847,281.705322 325.821594,282.671295 
	C326.253601,282.320801 326.685638,281.970276 327.117645,281.619751 
	C327.117645,278.566223 327.117645,275.512665 327.117645,271.718201 
	C329.483826,274.415131 331.283722,276.466614 333.563690,279.046417 
M361.358826,266.914032 
	C361.020569,267.847412 360.712219,268.792877 360.339050,269.712097 
	C358.495331,274.253876 360.022858,277.803009 363.626831,280.678284 
	C366.870178,283.265808 370.432800,284.304504 374.165833,281.848053 
	C378.198059,279.194733 380.507416,275.711914 379.197693,270.503784 
	C377.202667,262.570526 368.951111,260.517456 361.358826,266.914032 
M434.431824,279.987732 
	C437.610016,280.908234 440.881653,282.806000 443.943817,282.513214 
	C448.210693,282.105225 451.380157,276.855743 451.025543,272.400208 
	C450.685608,268.128906 448.746002,264.716003 444.456116,263.335968 
	C440.191162,261.963989 434.543518,263.915070 432.419006,267.189484 
	C430.277832,270.489563 430.937775,276.149017 434.431824,279.987732 
M478.914276,263.114868 
	C474.624268,263.913971 471.965790,266.391846 471.060486,270.703644 
	C469.976196,275.867889 472.255493,279.884827 476.646332,281.642090 
	C479.407806,282.747253 483.530151,282.468658 486.232971,281.151154 
	C489.084137,279.761322 490.400360,276.237701 489.061157,272.724518 
	C486.282501,272.724518 483.784271,272.724518 479.884216,272.724518 
	C481.913483,274.968872 483.036804,276.211273 484.160126,277.453644 
	C483.980591,277.869537 483.801056,278.285461 483.621521,278.701355 
	C481.338257,277.951782 478.345123,277.821167 476.987701,276.264343 
	C475.820923,274.926208 475.619904,271.316895 476.639587,269.885925 
	C477.755585,268.319702 480.761261,268.097900 482.945374,267.295685 
	C484.132965,266.859467 485.324738,266.434631 486.514618,266.004669 
	C485.411163,265.091125 484.421021,263.941498 483.167847,263.339905 
	C482.192932,262.871857 480.890259,263.086609 478.914276,263.114868 
M229.530701,263.649261 
	C226.396957,263.534332 223.240448,263.165558 220.141983,263.443695 
	C219.072891,263.539642 217.367569,265.190125 217.293121,266.226776 
	C216.972870,270.685577 217.000671,275.188843 217.259583,279.655151 
	C217.319870,280.694977 218.751999,282.471924 219.607437,282.505157 
	C222.993973,282.636627 226.402161,282.210419 231.554199,281.877899 
	C229.599899,279.986908 228.827194,278.744080 227.735809,278.318542 
	C226.578491,277.867340 225.041473,278.455139 223.815033,278.095520 
	C222.833939,277.807800 222.069748,276.780365 221.209274,276.081268 
	C222.015717,275.508392 222.749710,274.669006 223.645660,274.425415 
	C224.974976,274.064056 226.419022,274.124695 227.814240,274.005737 
	C227.980469,273.481445 228.146713,272.957153 228.312943,272.432892 
	C225.928864,271.274109 223.544769,270.115356 221.160690,268.956573 
	C222.995224,267.656799 224.781616,267.785919 226.292282,267.201874 
	C227.647354,266.677948 228.699127,265.369507 229.530701,263.649261 
M575.274048,278.065338 
	C573.064453,277.723328 570.854919,277.381317 568.457520,277.010254 
	C566.422485,281.136169 570.805908,282.701721 572.279907,282.707642 
	C575.030212,282.718689 578.309265,281.332642 580.302856,279.418427 
	C581.178589,278.577545 580.114319,274.423248 578.719666,272.841217 
	C577.012329,270.904419 574.034607,270.087433 571.787109,268.883209 
	C573.978455,263.782074 578.629150,272.594025 579.990295,266.143616 
	C579.676331,265.798035 579.398743,265.195923 579.004456,265.106079 
	C576.257080,264.480133 573.422791,263.385895 570.751343,263.677551 
	C569.616577,263.801453 567.631592,267.372528 568.102539,268.547089 
	C568.986694,270.752136 571.400818,272.330963 573.130188,274.214752 
	C574.116150,275.288788 575.006165,276.450836 575.274048,278.065338 
M546.849182,264.513336 
	C543.124573,263.936249 539.399902,263.359192 535.243774,262.715240 
	C535.243774,269.788910 535.243774,275.840485 535.243774,282.074524 
	C539.198486,282.074524 542.956482,282.074524 546.936401,282.074524 
	C547.235840,275.135498 540.998413,280.131012 538.457092,276.285217 
	C540.681152,275.279755 542.770081,274.335388 546.433289,272.679291 
	C543.346558,271.300018 541.282593,270.377747 538.078369,268.945953 
	C540.094788,268.185242 541.354004,267.744568 542.585571,267.236572 
	C544.049438,266.632751 545.489563,265.971161 546.849182,264.513336 
M263.368408,263.459045 
	C256.098297,262.396790 253.252792,263.796661 250.851166,268.324493 
	C248.381012,272.981537 249.395020,277.026978 252.702332,280.217621 
	C256.965363,284.330231 260.527283,284.034668 267.144196,279.349457 
	C264.435699,278.825989 262.771027,278.673462 261.223785,278.164154 
	C259.091766,277.462311 256.258362,277.026611 255.205368,275.473480 
	C254.285431,274.116669 254.746780,270.889038 255.836700,269.386536 
	C256.783508,268.081329 259.451691,267.988373 261.383911,267.448151 
	C262.534241,267.126556 263.732300,266.975708 264.908905,266.748108 
	C264.602570,265.799500 264.296234,264.850922 263.368408,263.459045 
M194.775604,267.368195 
	C195.696671,266.689484 196.617737,266.010773 197.538818,265.332062 
	C196.742889,264.660919 195.994492,263.489197 195.142517,263.408325 
	C192.029068,263.112732 188.877991,263.082031 185.748276,263.180328 
	C184.952927,263.205292 184.184143,264.075836 183.403152,264.557831 
	C184.021362,265.399597 184.499283,266.429230 185.299728,267.026978 
	C186.010101,267.557465 187.078568,267.608429 188.263748,267.950348 
	C188.263748,272.666473 188.263748,277.232727 188.263748,281.901215 
	C189.798538,282.224182 191.027466,282.482788 192.582275,282.809967 
	C193.074432,277.498016 193.533752,272.540314 194.775604,267.368195 
M406.261719,282.291077 
	C407.924408,281.745728 409.587067,281.200348 411.249725,280.654968 
	C408.967529,279.442078 406.685303,278.229187 403.840515,276.717285 
	C403.840515,273.677765 403.981171,269.728058 403.732880,265.803009 
	C403.677002,264.919678 402.263733,264.122162 401.475342,263.285156 
	C400.807831,264.060364 399.587219,264.818054 399.562073,265.613525 
	C399.391388,271.015564 399.472809,276.425537 399.472809,282.288452 
	C401.852295,282.288452 403.641876,282.288452 406.261719,282.291077 
M514.717957,264.173065 
	C513.287537,263.914948 511.857178,263.656860 510.203796,263.358490 
	C510.203796,269.999146 510.203796,275.889648 510.203796,281.930481 
	C511.733307,281.930481 513.067444,281.930481 513.887024,281.930481 
	C514.233887,276.034729 514.558289,270.521423 514.717957,264.173065 
z"/>
<path fill="#CBCBCB" opacity="1.000000" stroke="none" 
	d="
M517.138550,180.057968 
	C517.138489,180.057968 517.054871,180.449280 517.150146,180.864197 
	C517.392151,181.567032 517.598633,181.802567 517.864807,181.985733 
	C517.929688,182.726608 517.994568,183.467499 517.821411,184.844711 
	C518.306702,187.671875 519.030090,189.862701 519.753418,192.053543 
	C521.177307,192.468292 522.601196,192.883041 524.673950,193.103607 
	C526.274109,191.826126 527.599060,190.895905 528.115662,189.634598 
	C531.381592,181.661026 534.506531,173.628479 537.545959,165.565628 
	C537.806519,164.874313 537.105896,163.820663 536.851746,162.935318 
	C537.928589,156.883102 539.275146,150.863327 540.007996,144.769760 
	C540.769470,138.438126 540.937683,132.035126 541.328064,126.218704 
	C536.889404,125.064278 533.177124,124.450615 529.785156,123.057220 
	C528.257690,122.429733 526.364502,120.162292 526.479309,118.793343 
	C526.589600,117.476929 528.907532,115.942490 530.566345,115.264763 
	C532.478455,114.483521 534.810730,114.023170 536.819519,114.334198 
	C540.881958,114.963181 541.752014,112.824165 542.033508,109.580498 
	C542.174438,107.956657 542.133545,106.051804 542.969543,104.808250 
	C544.758301,102.147339 546.645447,98.511543 549.255310,97.685448 
	C553.257629,96.418625 558.863953,95.726440 561.491211,99.990585 
	C563.552917,103.336845 563.410583,108.041153 564.392273,112.851883 
	C566.190186,113.107010 569.411255,113.528114 572.619751,114.030174 
	C575.467407,114.475769 578.358276,116.013542 577.534851,118.911453 
	C576.942322,120.996964 574.088196,123.271584 571.828613,123.853622 
	C568.577332,124.691124 564.949707,124.067505 560.808350,124.067505 
	C560.130127,133.726074 559.481812,142.959427 558.420166,152.759949 
	C558.199036,154.631439 558.391113,155.935760 558.583191,157.240082 
	C558.655090,160.789566 558.726990,164.339066 558.359436,168.585602 
	C558.146362,171.847366 558.372864,174.412064 558.599304,176.976761 
	C558.850159,180.635284 559.101013,184.293808 559.351807,187.952332 
	C559.942627,188.057037 560.533447,188.161728 561.124207,188.266418 
	C568.584045,178.389374 573.192932,167.029999 577.912659,155.051193 
	C579.076965,150.179718 579.669434,145.631897 579.924194,141.065262 
	C579.978943,140.083832 578.812744,139.034302 578.209045,138.016144 
	C578.382385,137.215851 578.555725,136.415588 579.091003,135.085907 
	C579.239197,133.342377 579.025391,132.128235 578.811646,130.914093 
	C581.168274,123.481155 588.620789,119.976952 595.902344,122.835899 
	C599.202271,124.131561 600.536377,125.898361 600.156799,129.972809 
	C598.682129,145.799316 597.804443,161.681793 596.752563,177.546631 
	C596.665771,178.856110 596.615967,180.329987 597.116028,181.481125 
	C598.019043,183.559860 599.384460,184.564331 601.316223,181.504776 
	C602.638245,180.958694 603.865051,180.696884 604.019714,180.138199 
	C606.936584,169.602539 610.012268,159.096329 612.420898,148.440704 
	C613.601013,143.219925 613.492798,137.707947 613.967590,132.327759 
	C615.711670,131.882660 617.443176,131.113647 619.201904,131.045303 
	C630.137268,130.620422 630.905457,132.050888 629.869568,142.835205 
	C628.712036,154.885300 628.374146,167.029663 628.073914,179.142776 
	C627.669983,195.440475 627.587708,211.747131 627.474365,228.050690 
	C627.399231,238.857544 620.787048,246.112015 611.593384,248.798218 
	C607.385864,250.027557 604.393799,247.261597 604.801819,242.772064 
	C605.802551,231.760315 606.863953,220.749756 607.574036,209.717667 
	C607.949158,203.891006 607.640442,198.020340 607.640442,190.582428 
	C604.343933,194.072433 602.384094,196.947647 599.717468,198.811707 
	C593.223877,203.350861 582.641907,197.127884 579.842651,189.350281 
	C579.453918,188.270325 579.058838,187.192673 578.311279,185.648651 
	C577.647278,184.686523 577.338623,184.189713 577.029968,183.692902 
	C576.710144,184.500549 576.390320,185.308182 576.070435,186.115814 
	C576.070435,186.115799 576.040588,186.039017 575.715515,186.149231 
	C575.126526,187.098434 574.862610,187.937454 574.598694,188.776459 
	C574.402649,189.055450 574.206604,189.334442 573.517578,189.680267 
	C570.641724,189.300018 568.258911,188.852905 565.737305,188.379761 
	C566.800537,193.626663 564.790771,199.668976 561.826172,200.772385 
	C552.187378,204.359940 545.362854,200.389221 543.585388,190.132706 
	C543.385437,188.978912 543.351746,187.796295 543.184204,186.028412 
	C542.184753,187.417389 541.623474,188.197464 541.062195,188.977539 
	C539.708069,190.304123 538.170410,191.490799 537.032959,192.982590 
	C533.062866,198.189209 530.177490,204.773972 525.151794,208.510895 
	C514.390625,216.512527 506.683838,210.369034 503.081512,199.501617 
	C501.659912,195.212860 501.066101,190.649689 499.975037,185.661362 
	C497.834259,188.231766 495.971527,190.279831 494.318604,192.485168 
	C486.608795,202.771469 478.771881,203.321686 469.702271,194.195847 
	C469.151093,193.641235 468.262909,193.421555 467.528870,193.049225 
	C465.574829,196.330231 463.930450,199.844788 461.617493,202.843689 
	C452.889465,214.160049 438.512604,213.173340 430.902954,201.204315 
	C425.064270,192.020859 423.546417,181.720093 423.904236,170.962952 
	C424.265015,160.114960 426.316071,149.900711 432.064148,140.447220 
	C438.282166,130.220825 449.413452,124.572456 458.986267,129.420013 
	C465.455109,132.695755 471.369690,135.508926 478.767883,136.257889 
	C485.125427,136.901520 487.042419,141.576675 485.937073,148.007782 
	C485.106506,152.840027 484.520966,157.714386 483.152527,162.876114 
	C482.561890,164.449615 482.645050,165.716980 482.728210,166.984360 
	C482.519806,168.072327 482.311401,169.160309 481.857605,170.861969 
	C481.780182,173.333542 481.948120,175.191422 482.116089,177.049316 
	C482.339325,178.141739 482.562592,179.234161 482.519226,180.748520 
	C482.531982,181.770752 482.811371,182.371063 483.090759,182.971359 
	C484.603882,185.127045 486.154114,186.519852 488.038818,183.300079 
	C493.964600,173.176575 497.737427,162.262711 500.443176,150.241821 
	C502.350403,144.734268 503.385223,139.795364 500.299744,135.020233 
	C500.526825,134.218155 500.753876,133.416061 501.407959,132.175323 
	C501.867432,129.481705 501.899872,127.226761 501.932312,124.971809 
	C502.943054,111.981293 503.814667,98.977669 505.037781,86.007179 
	C505.483246,81.283066 509.688324,80.549484 513.401550,80.061623 
	C517.342834,79.543800 522.187561,79.992714 523.327332,83.929222 
	C524.677307,88.591461 524.238281,93.928017 523.816589,98.908127 
	C523.265564,105.414810 521.658020,111.830635 521.078308,118.336632 
	C520.388916,126.072998 520.449585,133.873260 519.919128,141.627640 
	C519.483704,147.992294 518.590759,154.324417 518.040710,160.683090 
	C517.825439,163.171448 517.992310,165.692856 517.552979,168.750031 
	C517.126770,172.886551 517.132629,176.472260 517.138550,180.057968 
M447.600830,150.183929 
	C446.235809,154.867828 444.706665,159.511276 443.539917,164.244049 
	C441.099762,174.142227 441.257172,184.079391 444.403992,193.768890 
	C444.978149,195.536697 447.504852,197.549377 449.332520,197.769577 
	C450.970367,197.966904 453.808075,196.265228 454.520752,194.682739 
	C457.571106,187.909134 460.993591,181.066589 462.464111,173.877655 
	C464.319458,164.807632 464.837738,155.350525 461.155945,146.331085 
	C459.701965,142.769257 456.044708,141.418564 452.938232,143.776840 
	C450.982605,145.261414 449.701752,147.634842 447.600830,150.183929 
M557.450806,184.491165 
	C557.450806,184.491165 557.501709,184.464844 557.450806,184.491165 
z"/>
<path fill="#CCCCCC" opacity="1.000000" stroke="none" 
	d="
M149.148804,210.065536 
	C149.150696,210.502350 149.152603,210.939148 148.695892,211.757874 
	C147.519547,213.975891 146.801819,215.812012 146.084106,217.648132 
	C146.084106,217.648132 145.880005,217.941330 145.375702,217.777435 
	C144.243515,218.140762 143.615646,218.667969 142.987762,219.195175 
	C137.354187,214.656891 138.244873,207.936737 137.651337,201.947754 
	C136.463287,189.959839 135.934937,177.906555 135.503510,165.288971 
	C136.077438,159.127777 136.308289,153.558365 136.414871,147.986557 
	C136.420639,147.685684 135.384476,147.364868 134.833328,147.053345 
	C134.557449,140.673996 134.281586,134.294632 134.442780,127.303146 
	C135.063660,120.383484 135.261932,114.076218 135.376907,107.767433 
	C135.381378,107.522545 134.586716,107.263100 134.164413,107.010437 
	C134.441208,90.946472 134.369308,74.864197 135.211273,58.829906 
	C135.457825,54.134693 138.119781,49.494495 140.112091,45.024025 
	C140.505386,44.141548 143.652237,43.333603 144.258163,43.885868 
	C148.148514,47.431656 151.841339,51.233566 155.240845,55.254215 
	C156.247238,56.444489 156.099045,58.611008 156.027328,60.951622 
	C155.412949,74.988319 155.224045,88.403442 155.156525,101.819176 
	C155.152451,102.626900 156.116364,103.439484 156.629868,104.249809 
	C156.630005,107.849686 156.630142,111.449554 156.268341,115.555847 
	C155.496552,116.403915 155.086685,116.745583 154.676819,117.087250 
	C155.135040,117.393379 155.593262,117.699509 156.051483,118.005638 
	C156.051483,123.251595 156.051483,128.497559 156.051483,135.117905 
	C163.517441,128.712997 169.789505,123.065910 176.342880,117.766685 
	C189.323181,107.270462 202.306931,96.767113 215.579453,86.647301 
	C225.788681,78.863129 236.425064,71.637428 246.909897,64.217644 
	C249.544891,62.352962 252.327286,60.696617 255.717682,59.052670 
	C259.302368,57.956390 262.502228,57.180523 265.053467,55.449013 
	C269.071167,52.722218 272.628387,49.375973 278.063446,51.671227 
	C278.629333,51.910210 279.925568,51.496384 280.288513,50.973129 
	C284.003418,45.617378 287.657135,49.031731 291.814880,50.780636 
	C290.410217,52.900970 289.248535,54.712311 288.027374,56.482655 
	C286.622192,58.519817 285.475037,60.882687 283.652008,62.447124 
	C281.295959,64.468994 277.699982,65.297661 275.857941,67.611404 
	C272.596252,71.708313 268.528748,72.860283 263.829803,72.786179 
	C259.450531,72.717110 256.358246,73.452499 255.209991,78.678078 
	C254.741089,80.812035 251.325119,82.211357 249.473358,84.157516 
	C248.121948,85.577820 247.136185,87.346046 245.679901,89.121323 
	C238.004745,93.880737 230.610886,98.437119 223.300522,103.123726 
	C222.315857,103.754982 221.751495,105.041878 220.992523,106.025185 
	C213.933228,110.853806 206.873947,115.682426 199.529236,120.706276 
	C218.600494,136.139023 237.151093,151.150436 255.899841,166.797531 
	C256.768768,167.934799 257.439514,168.436386 258.110260,168.937973 
	C258.110260,168.937973 258.038849,168.969162 258.125183,169.265778 
	C258.954163,169.770615 259.696869,169.978821 260.439545,170.187042 
	C260.439545,170.187042 260.732910,170.245209 260.638794,170.716797 
	C262.376984,172.425766 264.209320,173.663132 266.041656,174.900482 
	C272.995514,180.499283 280.059021,185.968536 286.870758,191.735184 
	C293.031921,196.951065 298.918213,202.491638 304.914246,207.878738 
	C303.370361,214.584641 298.142181,213.409225 293.407715,213.518509 
	C292.694122,211.920654 292.403015,210.764862 292.111938,209.609070 
	C291.857330,210.121353 291.602753,210.633636 291.348145,211.145920 
	C288.209717,210.905365 285.073242,210.634537 281.932159,210.435822 
	C280.111816,210.320663 278.284180,210.321564 276.459808,210.270233 
	C276.459808,210.270248 276.118683,209.952637 276.269073,209.377747 
	C274.734283,205.300522 268.561768,201.612656 265.005981,201.983719 
	C264.442200,201.795380 263.878448,201.607040 263.318390,200.844940 
	C262.954865,199.029922 262.982300,197.314545 262.155029,196.625916 
	C257.496796,192.748383 252.682571,189.049698 247.781738,185.482071 
	C247.107483,184.991226 245.655472,185.568771 244.563538,185.651688 
	C244.420258,185.462662 244.276962,185.273636 244.385986,184.466507 
	C244.612930,182.775940 244.587524,181.703461 244.562119,180.630981 
	C243.612488,181.283096 242.662857,181.935211 241.713242,182.587341 
	C241.225510,182.247650 240.737762,181.907974 240.111969,180.927338 
	C237.990128,177.675583 236.096344,174.983948 233.912933,172.552383 
	C233.627640,172.234680 231.854630,173.252838 230.770691,173.652267 
	C227.462723,170.742676 224.294235,167.653336 220.820358,164.957535 
	C210.772385,157.160126 202.209930,147.984543 195.195435,137.420441 
	C193.055389,134.197418 191.705017,130.450027 189.879730,126.710732 
	C186.714355,128.876511 183.698090,130.957184 180.664185,133.011856 
	C176.785965,135.638306 172.788574,138.103073 169.038467,140.900208 
	C165.686630,143.400314 162.176132,145.904160 159.540771,149.075439 
	C157.651337,151.349121 156.382324,154.656601 156.089630,157.626358 
	C155.553467,163.066040 155.943573,168.597015 155.488174,174.647766 
	C154.350693,176.734055 153.327194,178.202988 153.051697,179.800873 
	C151.548264,188.520493 150.190826,197.266174 148.887222,206.018387 
	C148.692551,207.325455 149.047897,208.714447 149.148804,210.065536 
M154.459442,58.490906 
	C154.459442,58.490906 154.517303,58.463722 154.459442,58.490906 
z"/>
<path fill="#CBCBCB" opacity="1.000000" stroke="none" 
	d="
M358.988892,164.179962 
	C357.921539,175.020432 353.251038,183.733047 344.680542,189.380768 
	C334.532806,196.067795 320.428101,196.074844 311.744415,184.667206 
	C304.594116,175.273911 304.759277,165.165039 306.731323,154.441788 
	C308.102325,146.986862 311.565033,140.733856 316.376984,135.007492 
	C325.435913,124.227036 343.484985,126.632729 351.398956,136.216980 
	C358.013641,144.227737 360.159546,153.588486 358.988892,164.179962 
M332.795166,180.061890 
	C336.550293,180.791458 339.177734,179.133865 339.627777,175.554626 
	C340.489166,168.703644 341.570190,161.716812 341.028168,154.908295 
	C340.644409,150.087723 338.223938,145.200699 335.810730,140.842743 
	C333.884827,137.364777 330.493103,138.079285 329.014984,141.511063 
	C327.241272,145.629272 325.615417,150.072296 325.254303,154.483444 
	C324.504517,163.642166 324.499451,172.908203 332.795166,180.061890 
z"/>
<path fill="#CCCBCB" opacity="1.000000" stroke="none" 
	d="
M366.106049,137.031067 
	C368.541901,131.248093 380.356293,127.362206 384.980896,131.345688 
	C386.405792,132.573044 386.172638,136.105087 386.137787,138.573914 
	C386.045074,145.145203 385.067322,151.754044 385.537903,158.268768 
	C385.984161,164.447174 387.614685,170.578247 389.171570,176.614792 
	C389.635651,178.414230 391.606689,179.825027 392.887268,181.413879 
	C394.391418,179.866043 396.833801,178.534653 397.248810,176.735550 
	C400.134521,164.226791 402.939026,151.676727 405.016907,139.016357 
	C405.753906,134.525894 408.414398,133.283539 411.572937,133.201370 
	C414.818939,133.116913 417.168365,134.856750 416.937164,139.170746 
	C416.076965,155.224106 412.618927,170.648727 405.476440,185.008835 
	C402.040680,191.916504 396.286499,196.930496 388.014801,197.735168 
	C381.972443,198.322922 377.377106,195.717300 374.092773,190.264252 
	C373.656036,187.906265 373.186340,186.067276 372.536011,184.294571 
	C371.402313,181.204178 369.706909,178.249191 369.039703,175.071030 
	C366.613159,163.512482 365.742065,151.852051 367.663940,140.080704 
	C367.812134,139.173126 366.655945,138.052612 366.106049,137.031067 
z"/>
<path fill="#D0CFCF" opacity="1.000000" stroke="none" 
	d="
M245.987427,88.959167 
	C247.136185,87.346046 248.121948,85.577820 249.473358,84.157516 
	C251.325119,82.211357 254.741089,80.812035 255.209991,78.678078 
	C256.358246,73.452499 259.450531,72.717110 263.829803,72.786179 
	C268.528748,72.860283 272.596252,71.708313 275.857941,67.611404 
	C277.699982,65.297661 281.295959,64.468994 283.652008,62.447124 
	C285.475037,60.882687 286.622192,58.519817 288.027374,56.482655 
	C289.248535,54.712311 290.410217,52.900970 291.814880,50.780636 
	C287.657135,49.031731 284.003418,45.617378 280.288513,50.973129 
	C279.925568,51.496384 278.629333,51.910210 278.063446,51.671227 
	C272.628387,49.375973 269.071167,52.722218 265.053467,55.449013 
	C262.502228,57.180523 259.302368,57.956390 256.072632,59.025467 
	C263.433563,53.537758 270.610992,47.188534 280.771667,46.937809 
	C283.188873,46.878159 285.812988,45.428543 287.941132,46.031948 
	C290.327362,46.708534 292.747559,48.653698 294.168884,50.722881 
	C294.819183,51.669617 293.460052,54.465103 292.420990,56.029446 
	C284.287445,68.274773 271.219971,74.422951 259.567871,82.314415 
	C255.692383,84.939087 251.765930,87.488487 247.373856,89.970154 
	C246.585770,89.565071 246.286606,89.262123 245.987427,88.959167 
z"/>
<path fill="#D6827F" opacity="1.000000" stroke="none" 
	d="
M333.323669,278.782257 
	C331.283722,276.466614 329.483826,274.415131 327.117645,271.718201 
	C327.117645,275.512665 327.117645,278.566223 327.117645,281.619751 
	C326.685638,281.970276 326.253601,282.320801 325.821594,282.671295 
	C324.805847,281.705322 322.996826,280.802521 322.914032,279.762268 
	C322.585327,275.633698 322.782043,271.462067 322.816040,267.306671 
	C322.825378,266.167664 322.946014,265.029572 323.041321,263.469360 
	C329.506165,263.054230 329.441132,270.504028 334.526703,272.567627 
	C334.695282,269.471954 334.841339,266.789581 334.999512,263.884979 
	C337.942444,262.836243 339.765045,263.137482 339.686462,266.855133 
	C339.609192,270.509888 339.851746,274.180267 339.592407,277.818024 
	C339.484406,279.333008 338.440247,280.781281 337.821777,282.259918 
	C336.402405,281.188751 334.983063,280.117584 333.323669,278.782257 
z"/>
<path fill="#D98584" opacity="1.000000" stroke="none" 
	d="
M361.563568,266.596436 
	C368.951111,260.517456 377.202667,262.570526 379.197693,270.503784 
	C380.507416,275.711914 378.198059,279.194733 374.165833,281.848053 
	C370.432800,284.304504 366.870178,283.265808 363.626831,280.678284 
	C360.022858,277.803009 358.495331,274.253876 360.339050,269.712097 
	C360.712219,268.792877 361.020569,267.847412 361.563568,266.596436 
M366.624725,267.859802 
	C363.125061,272.132416 363.775696,277.537537 368.015594,278.113892 
	C369.711914,278.344452 372.549835,277.755585 373.167938,276.616852 
	C374.171936,274.767151 374.372070,272.005768 373.835358,269.904053 
	C372.981995,266.562286 369.988831,266.903046 366.624725,267.859802 
z"/>
<path fill="#D98584" opacity="1.000000" stroke="none" 
	d="
M434.143188,279.744507 
	C430.937775,276.149017 430.277832,270.489563 432.419006,267.189484 
	C434.543518,263.915070 440.191162,261.963989 444.456116,263.335968 
	C448.746002,264.716003 450.685608,268.128906 451.025543,272.400208 
	C451.380157,276.855743 448.210693,282.105225 443.943817,282.513214 
	C440.881653,282.806000 437.610016,280.908234 434.143188,279.744507 
M436.766846,275.657410 
	C438.829620,276.498749 440.877197,277.893097 442.961517,277.950439 
	C444.019379,277.979523 445.972534,275.643250 446.045166,274.296753 
	C446.156555,272.231812 445.534058,269.588440 444.190491,268.165497 
	C443.228271,267.146423 439.497467,266.926392 438.893066,267.745422 
	C437.433197,269.723663 437.081360,272.519623 436.766846,275.657410 
z"/>
<path fill="#D68484" opacity="1.000000" stroke="none" 
	d="
M479.323761,263.056396 
	C480.890259,263.086609 482.192932,262.871857 483.167847,263.339905 
	C484.421021,263.941498 485.411163,265.091125 486.514618,266.004669 
	C485.324738,266.434631 484.132965,266.859467 482.945374,267.295685 
	C480.761261,268.097900 477.755585,268.319702 476.639587,269.885925 
	C475.619904,271.316895 475.820923,274.926208 476.987701,276.264343 
	C478.345123,277.821167 481.338257,277.951782 483.621521,278.701355 
	C483.801056,278.285461 483.980591,277.869537 484.160126,277.453644 
	C483.036804,276.211273 481.913483,274.968872 479.884216,272.724518 
	C483.784271,272.724518 486.282501,272.724518 489.061157,272.724518 
	C490.400360,276.237701 489.084137,279.761322 486.232971,281.151154 
	C483.530151,282.468658 479.407806,282.747253 476.646332,281.642090 
	C472.255493,279.884827 469.976196,275.867889 471.060486,270.703644 
	C471.965790,266.391846 474.624268,263.913971 479.323761,263.056396 
z"/>
<path fill="#D28281" opacity="1.000000" stroke="none" 
	d="
M229.707703,264.028198 
	C228.699127,265.369507 227.647354,266.677948 226.292282,267.201874 
	C224.781616,267.785919 222.995224,267.656799 221.160690,268.956573 
	C223.544769,270.115356 225.928864,271.274109 228.312943,272.432892 
	C228.146713,272.957153 227.980469,273.481445 227.814240,274.005737 
	C226.419022,274.124695 224.974976,274.064056 223.645660,274.425415 
	C222.749710,274.669006 222.015717,275.508392 221.209274,276.081268 
	C222.069748,276.780365 222.833939,277.807800 223.815033,278.095520 
	C225.041473,278.455139 226.578491,277.867340 227.735809,278.318542 
	C228.827194,278.744080 229.599899,279.986908 231.554199,281.877899 
	C226.402161,282.210419 222.993973,282.636627 219.607437,282.505157 
	C218.751999,282.471924 217.319870,280.694977 217.259583,279.655151 
	C217.000671,275.188843 216.972870,270.685577 217.293121,266.226776 
	C217.367569,265.190125 219.072891,263.539642 220.141983,263.443695 
	C223.240448,263.165558 226.396957,263.534332 229.707703,264.028198 
z"/>
<path fill="#E18C89" opacity="1.000000" stroke="none" 
	d="
M301.654755,265.033875 
	C301.708862,268.050751 301.762970,271.067627 301.586304,274.751587 
	C301.475403,276.287903 301.595276,277.157135 301.715118,278.026337 
	C301.751617,278.761963 301.788116,279.497589 301.591309,280.719543 
	C301.161041,281.429047 301.037079,281.687286 300.986084,281.980560 
	C299.948090,281.081451 297.950928,280.091431 298.026123,279.297760 
	C298.558075,273.682861 295.329254,273.870758 291.158661,274.681793 
	C291.016632,276.908203 290.871887,279.177094 290.698669,281.892090 
	C289.389008,282.009644 288.013397,282.133148 286.324890,282.284698 
	C286.324890,276.027649 286.324890,270.140198 286.324890,263.727905 
	C287.554504,263.632355 288.896912,263.528015 290.569031,263.398071 
	C290.745697,266.055115 290.894836,268.297699 291.056061,270.722717 
	C293.244598,270.722717 295.302338,270.722717 296.680695,270.722717 
	C297.929626,268.066620 299.017761,265.752594 300.490173,263.769653 
	C301.134552,264.411804 301.394653,264.722839 301.654755,265.033875 
z"/>
<path fill="#D68484" opacity="1.000000" stroke="none" 
	d="
M575.606689,277.819305 
	C575.006165,276.450836 574.116150,275.288788 573.130188,274.214752 
	C571.400818,272.330963 568.986694,270.752136 568.102539,268.547089 
	C567.631592,267.372528 569.616577,263.801453 570.751343,263.677551 
	C573.422791,263.385895 576.257080,264.480133 579.004456,265.106079 
	C579.398743,265.195923 579.676331,265.798035 579.990295,266.143616 
	C578.629150,272.594025 573.978455,263.782074 571.787109,268.883209 
	C574.034607,270.087433 577.012329,270.904419 578.719666,272.841217 
	C580.114319,274.423248 581.178589,278.577545 580.302856,279.418427 
	C578.309265,281.332642 575.030212,282.718689 572.279907,282.707642 
	C570.805908,282.701721 566.422485,281.136169 568.457520,277.010254 
	C570.854919,277.381317 573.064453,277.723328 575.606689,277.819305 
z"/>
<path fill="#D98786" opacity="1.000000" stroke="none" 
	d="
M546.894531,264.923950 
	C545.489563,265.971161 544.049438,266.632751 542.585571,267.236572 
	C541.354004,267.744568 540.094788,268.185242 538.078369,268.945953 
	C541.282593,270.377747 543.346558,271.300018 546.433289,272.679291 
	C542.770081,274.335388 540.681152,275.279755 538.457092,276.285217 
	C540.998413,280.131012 547.235840,275.135498 546.936401,282.074524 
	C542.956482,282.074524 539.198486,282.074524 535.243774,282.074524 
	C535.243774,275.840485 535.243774,269.788910 535.243774,262.715240 
	C539.399902,263.359192 543.124573,263.936249 546.894531,264.923950 
z"/>
<path fill="#D98786" opacity="1.000000" stroke="none" 
	d="
M263.679169,263.680664 
	C264.296234,264.850922 264.602570,265.799500 264.908905,266.748108 
	C263.732300,266.975708 262.534241,267.126556 261.383911,267.448151 
	C259.451691,267.988373 256.783508,268.081329 255.836700,269.386536 
	C254.746780,270.889038 254.285431,274.116669 255.205368,275.473480 
	C256.258362,277.026611 259.091766,277.462311 261.223785,278.164154 
	C262.771027,278.673462 264.435699,278.825989 267.144196,279.349457 
	C260.527283,284.034668 256.965363,284.330231 252.702332,280.217621 
	C249.395020,277.026978 248.381012,272.981537 250.851166,268.324493 
	C253.252792,263.796661 256.098297,262.396790 263.679169,263.680664 
z"/>
<path fill="#D98584" opacity="1.000000" stroke="none" 
	d="
M194.384338,267.475403 
	C193.533752,272.540314 193.074432,277.498016 192.582275,282.809967 
	C191.027466,282.482788 189.798538,282.224182 188.263748,281.901215 
	C188.263748,277.232727 188.263748,272.666473 188.263748,267.950348 
	C187.078568,267.608429 186.010101,267.557465 185.299728,267.026978 
	C184.499283,266.429230 184.021362,265.399597 183.403152,264.557831 
	C184.184143,264.075836 184.952927,263.205292 185.748276,263.180328 
	C188.877991,263.082031 192.029068,263.112732 195.142517,263.408325 
	C195.994492,263.489197 196.742889,264.660919 197.538818,265.332062 
	C196.617737,266.010773 195.696671,266.689484 194.384338,267.475403 
z"/>
<path fill="#D0D0D0" opacity="1.000000" stroke="none" 
	d="
M541.063965,189.368774 
	C541.623474,188.197464 542.184753,187.417389 543.184204,186.028412 
	C543.351746,187.796295 543.385437,188.978912 543.585388,190.132706 
	C545.362854,200.389221 552.187378,204.359940 561.826172,200.772385 
	C564.790771,199.668976 566.800537,193.626663 565.737305,188.379761 
	C568.258911,188.852905 570.641724,189.300018 573.434204,189.830597 
	C569.993530,197.608459 564.733398,203.605942 555.779175,205.410828 
	C552.657776,206.039978 546.102417,202.466980 544.114075,198.344803 
	C542.802551,195.625702 542.062012,192.631210 541.063965,189.368774 
z"/>
<path fill="#D4D2D2" opacity="1.000000" stroke="none" 
	d="
M365.919006,137.351608 
	C366.655945,138.052612 367.812134,139.173126 367.663940,140.080704 
	C365.742065,151.852051 366.613159,163.512482 369.039703,175.071030 
	C369.706909,178.249191 371.402313,181.204178 372.536011,184.294571 
	C373.186340,186.067276 373.656036,187.906265 373.960938,189.934723 
	C369.448029,185.271942 367.552429,179.359802 366.309326,173.157440 
	C363.945435,161.363068 363.386017,149.541901 365.919006,137.351608 
z"/>
<path fill="#D98786" opacity="1.000000" stroke="none" 
	d="
M405.846588,282.289764 
	C403.641876,282.288452 401.852295,282.288452 399.472809,282.288452 
	C399.472809,276.425537 399.391388,271.015564 399.562073,265.613525 
	C399.587219,264.818054 400.807831,264.060364 401.475342,263.285156 
	C402.263733,264.122162 403.677002,264.919678 403.732880,265.803009 
	C403.981171,269.728058 403.840515,273.677765 403.840515,276.717285 
	C406.685303,278.229187 408.967529,279.442078 411.249725,280.654968 
	C409.587067,281.200348 407.924408,281.745728 405.846588,282.289764 
z"/>
<path fill="#D7D7D7" opacity="1.000000" stroke="none" 
	d="
M613.596191,132.436615 
	C613.492798,137.707947 613.601013,143.219925 612.420898,148.440704 
	C610.012268,159.096329 606.936584,169.602539 604.019714,180.138199 
	C603.865051,180.696884 602.638245,180.958694 601.633850,181.235336 
	C606.879761,167.377090 609.490723,153.016815 610.787415,138.337463 
	C610.962891,136.350525 612.381714,134.473419 613.596191,132.436615 
z"/>
<path fill="#DADADA" opacity="1.000000" stroke="none" 
	d="
M156.781830,103.884384 
	C156.116364,103.439484 155.152451,102.626900 155.156525,101.819176 
	C155.224045,88.403442 155.412949,74.988319 155.861267,61.262699 
	C156.526031,63.386593 157.226669,65.820709 157.227768,68.255135 
	C157.233032,80.009697 157.050018,91.764343 156.781830,103.884384 
z"/>
<path fill="#D4D2D2" opacity="1.000000" stroke="none" 
	d="
M149.484543,209.943253 
	C149.047897,208.714447 148.692551,207.325455 148.887222,206.018387 
	C150.190826,197.266174 151.548264,188.520493 153.051697,179.800873 
	C153.327194,178.202988 154.350693,176.734055 155.386169,175.106995 
	C154.788620,183.322311 154.011642,191.662445 152.792526,199.937439 
	C152.296432,203.304825 150.839859,206.530701 149.484543,209.943253 
z"/>
<path fill="#D98786" opacity="1.000000" stroke="none" 
	d="
M514.800293,264.590576 
	C514.558289,270.521423 514.233887,276.034729 513.887024,281.930481 
	C513.067444,281.930481 511.733307,281.930481 510.203796,281.930481 
	C510.203796,275.889648 510.203796,269.999146 510.203796,263.358490 
	C511.857178,263.656860 513.287537,263.914948 514.800293,264.590576 
z"/>
<path fill="#D7D7D7" opacity="1.000000" stroke="none" 
	d="
M245.679901,89.121323 
	C246.286606,89.262123 246.585770,89.565071 247.051346,90.141991 
	C238.660065,95.690033 230.102356,100.964096 221.268585,106.131668 
	C221.751495,105.041878 222.315857,103.754982 223.300522,103.123726 
	C230.610886,98.437119 238.004745,93.880737 245.679901,89.121323 
z"/>
<path fill="#D7D7D7" opacity="1.000000" stroke="none" 
	d="
M536.540283,163.126404 
	C537.105896,163.820663 537.806519,164.874313 537.545959,165.565628 
	C534.506531,173.628479 531.381592,181.661026 528.115662,189.634598 
	C527.599060,190.895905 526.274109,191.826126 524.956177,192.978027 
	C528.469238,183.136917 532.349060,173.227203 536.540283,163.126404 
z"/>
<path fill="#D4D2D2" opacity="1.000000" stroke="none" 
	d="
M244.807892,185.764801 
	C245.655472,185.568771 247.107483,184.991226 247.781738,185.482071 
	C252.682571,189.049698 257.496796,192.748383 262.155029,196.625916 
	C262.982300,197.314545 262.954865,199.029922 263.184021,200.575348 
	C257.048065,195.878967 251.050140,190.878433 244.807892,185.764801 
z"/>
<path fill="#D4D2D2" opacity="1.000000" stroke="none" 
	d="
M276.712769,210.461639 
	C278.284180,210.321564 280.111816,210.320663 281.932159,210.435822 
	C285.073242,210.634537 288.209717,210.905365 291.348145,211.145920 
	C291.602753,210.633636 291.857330,210.121353 292.111938,209.609070 
	C292.403015,210.764862 292.694122,211.920654 292.988159,213.421738 
	C286.935211,216.404037 282.035919,213.088745 276.712769,210.461639 
z"/>
<path fill="#D7D7D7" opacity="1.000000" stroke="none" 
	d="
M134.094315,107.473541 
	C134.586716,107.263100 135.381378,107.522545 135.376907,107.767433 
	C135.261932,114.076218 135.063660,120.383484 134.522736,126.840149 
	C134.118500,120.638405 134.071365,114.287521 134.094315,107.473541 
z"/>
<path fill="#D7D7D7" opacity="1.000000" stroke="none" 
	d="
M134.711151,147.483643 
	C135.384476,147.364868 136.420639,147.685684 136.414871,147.986557 
	C136.308289,153.558365 136.077438,159.127777 135.513245,164.843826 
	C134.965469,159.297943 134.777206,153.605927 134.711151,147.483643 
z"/>
<path fill="#D4D2D2" opacity="1.000000" stroke="none" 
	d="
M265.156860,202.292114 
	C268.561768,201.612656 274.734283,205.300522 276.263855,209.144745 
	C272.508087,207.191254 268.907898,204.895889 265.156860,202.292114 
z"/>
<path fill="#DADADA" opacity="1.000000" stroke="none" 
	d="
M578.130493,138.447632 
	C578.812744,139.034302 579.978943,140.083832 579.924194,141.065262 
	C579.669434,145.631897 579.076965,150.179718 578.216309,154.839355 
	C577.829407,152.916931 577.831604,150.889435 578.121582,148.233246 
	C578.297058,146.742950 578.184631,145.881363 578.072205,145.019760 
	C578.065430,142.972885 578.058716,140.925995 578.130493,138.447632 
z"/>
<path fill="#DADADA" opacity="1.000000" stroke="none" 
	d="
M500.211487,135.477661 
	C503.385223,139.795364 502.350403,144.734268 500.526184,149.838165 
	C500.154114,145.302338 500.138702,140.618729 500.211487,135.477661 
z"/>
<path fill="#D4D2D2" opacity="1.000000" stroke="none" 
	d="
M231.067566,173.795349 
	C231.854630,173.252838 233.627640,172.234680 233.912933,172.552383 
	C236.096344,174.983948 237.990128,177.675583 239.987625,180.655792 
	C237.122360,178.662949 234.243393,176.300674 231.067566,173.795349 
z"/>
<path fill="#D4D2D2" opacity="1.000000" stroke="none" 
	d="
M517.456055,179.903854 
	C517.132629,176.472260 517.126770,172.886551 517.471985,169.154236 
	C517.806580,172.588348 517.790100,176.169037 517.456055,179.903854 
z"/>
<path fill="#DADADA" opacity="1.000000" stroke="none" 
	d="
M558.687988,176.627472 
	C558.372864,174.412064 558.146362,171.847366 558.234802,169.011276 
	C558.625366,171.252655 558.701050,173.765411 558.687988,176.627472 
z"/>
<path fill="#DADADA" opacity="1.000000" stroke="none" 
	d="
M501.603668,125.207153 
	C501.899872,127.226761 501.867432,129.481705 501.495911,131.861755 
	C501.196198,129.805389 501.235596,127.623947 501.603668,125.207153 
z"/>
<path fill="#D4D2D2" opacity="1.000000" stroke="none" 
	d="
M146.386444,217.541290 
	C146.801819,215.812012 147.519547,213.975891 148.595795,212.071060 
	C148.199158,213.813049 147.443970,215.623749 146.386444,217.541290 
z"/>
<path fill="#D7D7D7" opacity="1.000000" stroke="none" 
	d="
M265.905029,174.605667 
	C264.209320,173.663132 262.376984,172.425766 260.671936,170.862610 
	C262.455627,171.794830 264.112000,173.052841 265.905029,174.605667 
z"/>
<path fill="#D4D2D2" opacity="1.000000" stroke="none" 
	d="
M241.811188,182.835724 
	C242.662857,181.935211 243.612488,181.283096 244.562119,180.630981 
	C244.587524,181.703461 244.612930,182.775940 244.381851,184.110718 
	C243.386612,183.943390 242.647858,183.513748 241.811188,182.835724 
z"/>
<path fill="#D7D7D7" opacity="1.000000" stroke="none" 
	d="
M482.422913,176.830109 
	C481.948120,175.191422 481.780182,173.333542 481.872253,171.205353 
	C482.331451,172.827011 482.530609,174.718948 482.422913,176.830109 
z"/>
<path fill="#D4D2D2" opacity="1.000000" stroke="none" 
	d="
M519.816711,191.625763 
	C519.030090,189.862701 518.306702,187.671875 517.841431,185.217499 
	C518.693054,187.035278 519.286560,189.116623 519.816711,191.625763 
z"/>
<path fill="#DADADA" opacity="1.000000" stroke="none" 
	d="
M558.672119,156.897064 
	C558.391113,155.935760 558.199036,154.631439 558.306091,153.176529 
	C558.657166,154.201965 558.709106,155.378006 558.672119,156.897064 
z"/>
<path fill="#D7D7D7" opacity="1.000000" stroke="none" 
	d="
M482.817078,166.596664 
	C482.645050,165.716980 482.561890,164.449615 482.805725,163.112595 
	C483.057159,164.098297 482.981567,165.153625 482.817078,166.596664 
z"/>
<path fill="#DADADA" opacity="1.000000" stroke="none" 
	d="
M578.549316,131.105637 
	C579.025391,132.128235 579.239197,133.342377 579.196777,134.786499 
	C578.722656,133.776703 578.504822,132.536942 578.549316,131.105637 
z"/>
<path fill="#CBCBCB" opacity="1.000000" stroke="none" 
	d="
M577.900146,145.224304 
	C578.184631,145.881363 578.297058,146.742950 578.198364,147.804703 
	C577.900818,147.146179 577.814453,146.287521 577.900146,145.224304 
z"/>
<path fill="#D0D0D0" opacity="1.000000" stroke="none" 
	d="
M576.393188,186.066086 
	C576.390320,185.308182 576.710144,184.500549 577.029968,183.692902 
	C577.338623,184.189713 577.647278,184.686523 577.975403,185.493164 
	C577.568604,185.874130 577.142273,185.945236 576.393188,186.066086 
z"/>
<path fill="#D7D7D7" opacity="1.000000" stroke="none" 
	d="
M483.047485,182.642761 
	C482.811371,182.371063 482.531982,181.770752 482.505676,181.092865 
	C482.840607,181.448242 482.922394,181.881210 483.047485,182.642761 
z"/>
<path fill="#D7D7D7" opacity="1.000000" stroke="none" 
	d="
M260.273529,169.948517 
	C259.696869,169.978821 258.954163,169.770615 258.135132,169.228104 
	C258.741669,169.165878 259.424591,169.437943 260.273529,169.948517 
z"/>
<path fill="#D7D7D7" opacity="1.000000" stroke="none" 
	d="
M258.060150,168.569946 
	C257.439514,168.436386 256.768768,167.934799 256.035217,167.098724 
	C256.651642,167.243454 257.330841,167.722687 258.060150,168.569946 
z"/>
<path fill="#D4D2D2" opacity="1.000000" stroke="none" 
	d="
M143.273499,219.356171 
	C143.615646,218.667969 144.243515,218.140762 145.198090,217.758484 
	C144.869583,218.441345 144.214401,218.979263 143.273499,219.356171 
z"/>
<path fill="#D0D0D0" opacity="1.000000" stroke="none" 
	d="
M574.847900,188.562073 
	C574.862610,187.937454 575.126526,187.098434 575.753845,186.164246 
	C575.777222,186.828598 575.437195,187.588135 574.847900,188.562073 
z"/>
<path fill="#DADADA" opacity="1.000000" stroke="none" 
	d="
M156.186676,117.677162 
	C155.593262,117.699509 155.135040,117.393379 154.676819,117.087250 
	C155.086685,116.745583 155.496552,116.403915 156.210236,116.008987 
	C156.449997,116.420044 156.385941,116.884369 156.186676,117.677162 
z"/>
<path fill="#AD7570" opacity="1.000000" stroke="none" 
	d="
M301.821838,277.653442 
	C301.595276,277.157135 301.475403,276.287903 301.535400,275.201630 
	C301.786377,275.749908 301.857483,276.515228 301.821838,277.653442 
z"/>
<path fill="#AD7570" opacity="1.000000" stroke="none" 
	d="
M301.750183,264.784973 
	C301.394653,264.722839 301.134552,264.411804 300.857666,263.893463 
	C301.175781,263.969452 301.510712,264.252747 301.750183,264.784973 
z"/>
<path fill="#AD7570" opacity="1.000000" stroke="none" 
	d="
M301.257141,281.958740 
	C301.037079,281.687286 301.161041,281.429047 301.537964,281.084656 
	C301.654724,281.287964 301.591461,281.612427 301.257141,281.958740 
z"/>
<path fill="#D4D2D2" opacity="1.000000" stroke="none" 
	d="
M517.896301,181.714661 
	C517.598633,181.802567 517.392151,181.567032 517.145508,181.064209 
	C517.339661,181.047409 517.633728,181.245499 517.896301,181.714661 
z"/>
<path fill="#030303" opacity="1.000000" stroke="none" 
	d="
M447.859497,149.896729 
	C449.701752,147.634842 450.982605,145.261414 452.938232,143.776840 
	C456.044708,141.418564 459.701965,142.769257 461.155945,146.331085 
	C464.837738,155.350525 464.319458,164.807632 462.464111,173.877655 
	C460.993591,181.066589 457.571106,187.909134 454.520752,194.682739 
	C453.808075,196.265228 450.970367,197.966904 449.332520,197.769577 
	C447.504852,197.549377 444.978149,195.536697 444.403992,193.768890 
	C441.257172,184.079391 441.099762,174.142227 443.539917,164.244049 
	C444.706665,159.511276 446.235809,154.867828 447.859497,149.896729 
z"/>
<path fill="#DADADA" opacity="1.000000" stroke="none" 
	d="
M557.476257,184.477997 
	C557.501709,184.464844 557.450806,184.491165 557.476257,184.477997 
z"/>
<path fill="#DADADA" opacity="1.000000" stroke="none" 
	d="
M154.488373,58.477314 
	C154.517303,58.463722 154.459442,58.490906 154.488373,58.477314 
z"/>
<path fill="#040404" opacity="1.000000" stroke="none" 
	d="
M332.383362,180.049835 
	C324.499451,172.908203 324.504517,163.642166 325.254303,154.483444 
	C325.615417,150.072296 327.241272,145.629272 329.014984,141.511063 
	C330.493103,138.079285 333.884827,137.364777 335.810730,140.842743 
	C338.223938,145.200699 340.644409,150.087723 341.028168,154.908295 
	C341.570190,161.716812 340.489166,168.703644 339.627777,175.554626 
	C339.177734,179.133865 336.550293,180.791458 332.383362,180.049835 
z"/>
<path fill="#140807" opacity="1.000000" stroke="none" 
	d="
M366.945282,267.647827 
	C369.988831,266.903046 372.981995,266.562286 373.835358,269.904053 
	C374.372070,272.005768 374.171936,274.767151 373.167938,276.616852 
	C372.549835,277.755585 369.711914,278.344452 368.015594,278.113892 
	C363.775696,277.537537 363.125061,272.132416 366.945282,267.647827 
z"/>
<path fill="#0D0605" opacity="1.000000" stroke="none" 
	d="
M436.524841,275.321655 
	C437.081360,272.519623 437.433197,269.723663 438.893066,267.745422 
	C439.497467,266.926392 443.228271,267.146423 444.190491,268.165497 
	C445.534058,269.588440 446.156555,272.231812 446.045166,274.296753 
	C445.972534,275.643250 444.019379,277.979523 442.961517,277.950439 
	C440.877197,277.893097 438.829620,276.498749 436.524841,275.321655 
z"/>
</svg>